<!DOCTYPE svg PUBLIC "-//W3C//DTD SVG 20010904//EN" "http://www.w3.org/TR/2001/REC-SVG-20010904/DTD/svg10.dtd">
<svg version="1.0" xmlns="http://www.w3.org/2000/svg" width="40px" height="40px" viewBox="0 0 400 400" preserveAspectRatio="xMidYMid meet">
<g id="layer101" fill="#686868" stroke="none">
 <path d="M105 383 c-73 -38 -105 -94 -105 -183 0 -126 74 -200 200 -200 126 0 200 74 200 200 0 128 -74 200 -202 200 -38 -1 -75 -7 -93 -17z"/>
 </g>
<g id="layer102" fill="#9f9f9f" stroke="none">
 <path d="M105 383 c-73 -38 -105 -94 -105 -183 0 -126 74 -200 200 -200 126 0 200 74 200 200 0 128 -74 200 -202 200 -38 -1 -75 -7 -93 -17z m169 -99 c23 -9 23 -159 0 -168 -28 -11 -140 -6 -152 6 -16 16 -16 140 0 156 12 12 124 17 152 6z"/>
 <path d="M130 225 c0 -25 5 -45 10 -45 6 0 10 10 10 23 0 30 18 47 50 47 32 0 50 -17 50 -47 0 -13 5 -23 10 -23 6 0 10 20 10 45 l0 45 -70 0 -70 0 0 -45z"/>
 <path d="M175 224 c-19 -20 -16 -43 8 -58 37 -23 77 35 41 61 -23 17 -29 16 -49 -3z"/>
 <path d="M230 150 c0 -13 7 -20 20 -20 13 0 20 7 20 20 0 13 -7 20 -20 20 -13 0 -20 -7 -20 -20z"/>
 </g>
<g id="layer103" fill="#fefefe" stroke="none">
 <path d="M105 383 c-73 -38 -105 -94 -105 -183 0 -126 74 -200 200 -200 126 0 200 74 200 200 0 128 -74 200 -202 200 -38 -1 -75 -7 -93 -17z m180 -183 l0 -85 -85 0 -85 0 -3 74 c-2 41 -1 80 2 88 4 11 25 13 88 11 l83 -3 0 -85z"/>
 <path d="M130 230 c0 -22 5 -40 10 -40 6 0 9 3 8 8 -5 18 14 50 32 55 34 9 62 -5 76 -37 l13 -31 1 43 0 42 -70 0 -70 0 0 -40z"/>
 <path d="M174 216 c-10 -26 4 -48 28 -44 17 2 23 10 23 28 0 18 -6 26 -23 28 -13 2 -25 -3 -28 -12z"/>
 <path d="M232 148 c7 -19 38 -22 38 -4 0 10 -9 16 -21 16 -12 0 -19 -5 -17 -12z"/>
 </g>

</svg>